<svg xmlns="http://www.w3.org/2000/svg" viewBox="0 0 64 64" role="img" aria-label="Sooraj Sudhakaran">
  <rect width="64" height="64" rx="16" fill="#1c7dff"/>
  <path fill="#ffffff" d="M31.7 48.4c-5.8 0-10.5-1.8-14.3-5.4l5.2-6.2c2.8 2.4 5.9 3.7 9.4 3.7 2.7 0 4.2-.9 4.2-2.6v-.1c0-1.6-1-2.5-6.2-3.7-6.2-1.4-11-3.2-11-10.1v-.1c0-6 4.7-10.4 12.5-10.4 5.5 0 9.7 1.5 13.1 4.4l-4.7 6.6c-2.6-2-5.6-3-8.6-3-2.3 0-3.5 1-3.5 2.4v.1c0 1.8 1.3 2.6 6.4 3.7 6.7 1.5 10.8 3.7 10.8 9.9v.1c0 6.6-5.2 10.8-13.3 10.8Z"/>
</svg>
